<svg xmlns="http://www.w3.org/2000/svg" width="45" height="45" viewBox="0 0 45 45"><title>PWN</title><rect x="20" width="5" height="15"/><rect x="20" y="30" width="5" height="15"/><rect x="40" width="5" height="5"/><rect x="35" y="5" width="5" height="5"/><rect x="30" y="10" width="5" height="5"/><rect x="25" y="15" width="5" height="5"/><rect x="20" y="20" width="5" height="5"/><rect x="15" y="25" width="5" height="5"/><rect x="10" y="30" width="5" height="5"/><rect x="5" y="35" width="5" height="5"/><rect y="40" width="5" height="5"/><rect x="5" y="5" width="5" height="5"/><rect width="5" height="5"/><rect x="10" y="10" width="5" height="5"/><rect x="15" y="15" width="5" height="5"/><rect x="25" y="25" width="5" height="5"/><rect x="30" y="30" width="5" height="5"/><rect x="35" y="35" width="5" height="5"/><rect x="40" y="40" width="5" height="5"/><rect x="35" y="15" width="5" height="15" transform="translate(60 -15) rotate(90)"/><rect x="5" y="15" width="5" height="15" transform="translate(30 15) rotate(90)"/></svg>