<?xml version="1.0" encoding="UTF-8"?>
<svg width="960px" height="30px" viewBox="0 0 960 30" version="1.1" xmlns="http://www.w3.org/2000/svg" xmlns:xlink="http://www.w3.org/1999/xlink">
    <!-- Generator: Sketch 61.2 (89653) - https://sketch.com -->
    <title>challenge_bar</title>
    <desc>Created with Sketch.</desc>
    <g id="Platform" stroke="none" stroke-width="1" fill="none" fill-rule="evenodd">
        <g id="03.Team" transform="translate(-200.000000, -357.000000)" fill="#FDB50F">
            <g id="Group-2" transform="translate(200.000000, 323.000000)">
                <path d="M50,48.9997 L50,53.9997 L55,53.9997 L55,63.9997 L45,63.9997 L45,58.9997 L40,58.9997 L40,48.9997 L50,48.9997 Z M109.9993,48.9997 L109.9993,53.9997 L115.0003,53.9997 L115.0003,63.9997 L105.0003,63.9997 L105.0003,58.9997 L100.0003,58.9997 L100.0003,48.9997 L109.9993,48.9997 Z M169.9997,48.9997 L169.9997,53.9997 L174.9997,53.9997 L174.9997,63.9997 L164.9997,63.9997 L164.9997,58.9997 L160.0007,58.9997 L160.0007,48.9997 L169.9997,48.9997 Z M230,48.9997 L230,53.9997 L235,53.9997 L235,63.9997 L225,63.9997 L225,58.9997 L220,58.9997 L220,48.9997 L230,48.9997 Z M289.9993,48.9997 L289.9993,53.9997 L295.0003,53.9997 L295.0003,63.9997 L285.0003,63.9997 L285.0003,58.9997 L280.0003,58.9997 L280.0003,48.9997 L289.9993,48.9997 Z M340,44 L340,49 L349.9997,48.9997 L349.9997,53.9997 L354.9997,53.9997 L354.9997,63.9997 L344.9997,63.9997 L344.9997,58.9997 L339.9997,58.9997 L339.9997,48.9997 L335,49 L335,54 L330,54 L330,49 L335,49 L335,44 L340,44 Z M950,48.9997 L950,53.9997 L955,53.9997 L955,63.9997 L945,63.9997 L945,58.9997 L940,58.9997 L940,48.9997 L950,48.9997 Z M520,44 L520,49 L529.9997,48.9997 L529.9997,53.9997 L534.9997,53.9997 L534.9997,63.9997 L524.9997,63.9997 L524.9997,58.9997 L519.9997,58.9997 L519.9997,48.9997 L515,49 L515,54 L510,54 L510,49 L515,49 L515,44 L520,44 Z M700,44 L700,49 L709.9997,48.9997 L709.9997,53.9997 L714.9997,53.9997 L714.9997,63.9997 L704.9997,63.9997 L704.9997,58.9997 L699.9997,58.9997 L699.9997,48.9997 L695,49 L695,54 L690,54 L690,49 L695,49 L695,44 L700,44 Z M880,44 L880,49 L889.9997,48.9997 L889.9997,53.9997 L894.9997,53.9997 L894.9997,63.9997 L884.9997,63.9997 L884.9997,58.9997 L879.9997,58.9997 L879.9997,48.9997 L875,49 L875,54 L870,54 L870,49 L875,49 L875,44 L880,44 Z M590,48.9997 L590,53.9997 L595,53.9997 L595,63.9997 L585,63.9997 L585,58.9997 L580,58.9997 L580,48.9997 L590,48.9997 Z M410,48.9997 L410,53.9997 L415,53.9997 L415,63.9997 L405,63.9997 L405,58.9997 L400,58.9997 L400,48.9997 L410,48.9997 Z M469.9993,48.9997 L469.9993,53.9997 L475.0003,53.9997 L475.0003,63.9997 L465.0003,63.9997 L465.0003,58.9997 L460.0003,58.9997 L460.0003,48.9997 L469.9993,48.9997 Z M830.0003,48.9997 L830.0003,53.9997 L835.0003,53.9997 L835.0003,63.9997 L825.0003,63.9997 L825.0003,58.9997 L820.0003,58.9997 L820.0003,48.9997 L830.0003,48.9997 Z M649.9993,48.9997 L649.9993,53.9997 L655.0003,53.9997 L655.0003,63.9997 L645.0003,63.9997 L645.0003,58.9997 L640.0003,58.9997 L640.0003,48.9997 L649.9993,48.9997 Z M770,48.9997 L770,53.9997 L775,53.9997 L775,63.9997 L765,63.9997 L765,58.9997 L760,58.9997 L760,48.9997 L770,48.9997 Z M330,54 L330,59 L315,59 L315,54 L330,54 Z M450,54 L450,59 L435,59 L435,54 L450,54 Z M690,54 L690,59 L675,59 L675,54 L690,54 Z M750,54 L750,59 L735,59 L735,54 L750,54 Z M510,54 L510,59 L495,59 L495,54 L510,54 Z M150,54 L150,59 L135,59 L135,54 L150,54 Z M270,54 L270,59 L255,59 L255,54 L270,54 Z M810,54 L810,59 L795,59 L795,54 L810,54 Z M390,54 L390,59 L375,59 L375,54 L390,54 Z M570,54 L570,59 L555,59 L555,54 L570,54 Z M630,54 L630,59 L615,59 L615,54 L630,54 Z M930,54 L930,59 L915,59 L915,54 L930,54 Z M90,54 L90,59 L75,59 L75,54 L90,54 Z M30,54 L30,59 L15,59 L15,54 L30,54 Z M210,54 L210,59 L195,59 L195,54 L210,54 Z M870,54 L870,59 L855,59 L855,54 L870,54 Z M15,49 L15,54 L10,54 L10,49 L15,49 Z M35,49 L35,54 L30,54 L30,49 L35,49 Z M75,49 L75,54 L70,54 L70,49 L75,49 Z M95,49 L95,54 L90,54 L90,49 L95,49 Z M135,49 L135,54 L130,54 L130,49 L135,49 Z M155,49 L155,54 L150,54 L150,49 L155,49 Z M209.9998,34.0003 L209.9998,44.0003 L204.9998,44.0003 L204.9998,48.9993 L195,49 L195,54 L190,54 L190,49 L194.9998,48.9993 L194.9998,38.9993 L199.9998,38.9993 L199.9998,34.0003 L209.9998,34.0003 Z M215,49 L215,54 L210,54 L210,49 L215,49 Z M255,49 L255,54 L250,54 L250,49 L255,49 Z M275,49 L275,54 L270,54 L270,49 L275,49 Z M315,49 L315,54 L310,54 L310,49 L315,49 Z M375,49 L375,54 L370,54 L370,49 L375,49 Z M395,49 L395,54 L390,54 L390,49 L395,49 Z M435,49 L435,54 L430,54 L430,49 L435,49 Z M455,49 L455,54 L450,54 L450,49 L455,49 Z M495,49 L495,54 L490,54 L490,49 L495,49 Z M555,49 L555,54 L550,54 L550,49 L555,49 Z M575,49 L575,54 L570,54 L570,49 L575,49 Z M615,49 L615,54 L610,54 L610,49 L615,49 Z M635,49 L635,54 L630,54 L630,49 L635,49 Z M675,49 L675,54 L670,54 L670,49 L675,49 Z M749.9998,34.0003 L749.9998,44.0003 L744.9998,44.0003 L744.9998,48.9993 L735,49 L735,54 L730,54 L730,49 L734.9998,48.9993 L734.9998,38.9993 L739.9998,38.9993 L739.9998,34.0003 L749.9998,34.0003 Z M755,49 L755,54 L750,54 L750,49 L755,49 Z M795,49 L795,54 L790,54 L790,49 L795,49 Z M815,49 L815,54 L810,54 L810,49 L815,49 Z M855,49 L855,54 L850,54 L850,49 L855,49 Z M929.9998,34.0003 L929.9998,44.0003 L924.9998,44.0003 L924.9998,48.9993 L915,49 L915,54 L910,54 L910,49 L914.9998,48.9993 L914.9998,38.9993 L919.9998,38.9993 L919.9998,34.0003 L929.9998,34.0003 Z M935,49 L935,54 L930,54 L930,49 L935,49 Z M90.0001,34.0003 L90.0001,44.0003 L84.9991,44.0003 L84.9991,48.9993 L75.0001,48.9993 L75.0001,38.9993 L80.0001,38.9993 L80.0001,34.0003 L90.0001,34.0003 Z M220,44 L220,49 L215,49 L215,44 L220,44 Z M430,44 L430,49 L425,49 L425,44 L430,44 Z M10,44 L10,49 L5,49 L5,44 L10,44 Z M310,44 L310,49 L305,49 L305,44 L310,44 Z M70,44 L70,49 L65,49 L65,44 L70,44 Z M40,44 L40,49 L35,49 L35,44 L40,44 Z M400,44 L400,49 L395,49 L395,44 L400,44 Z M630.0001,34.0003 L630.0001,44.0003 L625.0001,44.0003 L625.0001,48.9993 L615.0001,48.9993 L615.0001,38.9993 L620.0001,38.9993 L620.0001,34.0003 L630.0001,34.0003 Z M250,44 L250,49 L245,49 L245,44 L250,44 Z M580,44 L580,49 L575,49 L575,44 L580,44 Z M330.0004,34.0003 L330.0004,44.0003 L324.9994,44.0003 L324.9994,48.9993 L315.0004,48.9993 L315.0004,38.9993 L320.0004,38.9993 L320.0004,34.0003 L330.0004,34.0003 Z M490,44 L490,49 L485,49 L485,44 L490,44 Z M150.0004,34.0003 L150.0004,44.0003 L144.9994,44.0003 L144.9994,48.9993 L135.0004,48.9993 L135.0004,38.9993 L140.0004,38.9993 L140.0004,34.0003 L150.0004,34.0003 Z M690.0004,34.0003 L690.0004,44.0003 L685.0004,44.0003 L685.0004,48.9993 L675.0004,48.9993 L675.0004,38.9993 L680.0004,38.9993 L680.0004,34.0003 L690.0004,34.0003 Z M370,44 L370,49 L365,49 L365,44 L370,44 Z M730,44 L730,49 L725,49 L725,44 L730,44 Z M190,44 L190,49 L185,49 L185,44 L190,44 Z M510.0004,34.0003 L510.0004,44.0003 L505.0004,44.0003 L505.0004,48.9993 L495.0004,48.9993 L495.0004,38.9993 L500.0004,38.9993 L500.0004,34.0003 L510.0004,34.0003 Z M760,44 L760,49 L755,49 L755,44 L760,44 Z M280,44 L280,49 L275,49 L275,44 L280,44 Z M550,44 L550,49 L545,49 L545,44 L550,44 Z M790,44 L790,49 L785,49 L785,44 L790,44 Z M100,44 L100,49 L95,49 L95,44 L100,44 Z M29.9998,34.0003 L29.9998,44.0003 L24.9998,44.0003 L24.9998,48.9993 L15.0008,48.9993 L15.0008,38.9993 L19.9998,38.9993 L19.9998,34.0003 L29.9998,34.0003 Z M820,44 L820,49 L815,49 L815,44 L820,44 Z M389.9998,34.0003 L389.9998,44.0003 L384.9998,44.0003 L384.9998,48.9993 L375.0008,48.9993 L375.0008,38.9993 L379.9998,38.9993 L379.9998,34.0003 L389.9998,34.0003 Z M810.0001,34.0003 L810.0001,44.0003 L805.0001,44.0003 L805.0001,48.9993 L795.0001,48.9993 L795.0001,38.9993 L800.0001,38.9993 L800.0001,34.0003 L810.0001,34.0003 Z M569.9998,34.0003 L569.9998,44.0003 L564.9998,44.0003 L564.9998,48.9993 L555.0008,48.9993 L555.0008,38.9993 L559.9998,38.9993 L559.9998,34.0003 L569.9998,34.0003 Z M850,44 L850,49 L845,49 L845,44 L850,44 Z M610,44 L610,49 L605,49 L605,44 L610,44 Z M270.0001,34.0003 L270.0001,44.0003 L265.0001,44.0003 L265.0001,48.9993 L255.0001,48.9993 L255.0001,38.9993 L260.0001,38.9993 L260.0001,34.0003 L270.0001,34.0003 Z M130,44 L130,49 L125,49 L125,44 L130,44 Z M870.0004,34.0003 L870.0004,44.0003 L865.0004,44.0003 L865.0004,48.9993 L855.0004,48.9993 L855.0004,38.9993 L860.0004,38.9993 L860.0004,34.0003 L870.0004,34.0003 Z M640,44 L640,49 L635,49 L635,44 L640,44 Z M910,44 L910,49 L905,49 L905,44 L910,44 Z M460,44 L460,49 L455,49 L455,44 L460,44 Z M160,44 L160,49 L155,49 L155,44 L160,44 Z M940,44 L940,49 L935,49 L935,44 L940,44 Z M450.0001,34.0003 L450.0001,44.0003 L445.0001,44.0003 L445.0001,48.9993 L435.0001,48.9993 L435.0001,38.9993 L440.0001,38.9993 L440.0001,34.0003 L450.0001,34.0003 Z M670,44 L670,49 L665,49 L665,44 L670,44 Z M5,39 L5,44 L0,44 L0,39 L5,39 Z M185,39 L185,44 L180,44 L180,39 L185,39 Z M665,39 L665,44 L660,44 L660,39 L665,39 Z M465,39 L465,44 L460,44 L460,39 L465,39 Z M285,39 L285,44 L280,44 L280,39 L285,39 Z M719.9997,34.0003 L719.9997,38.9993 L705,39 L705,44 L700,44 L700,39 L704.9997,38.9993 L704.9997,34.0003 L719.9997,34.0003 Z M305,39 L305,44 L300,44 L300,39 L305,39 Z M485,39 L485,44 L480,44 L480,39 L485,39 Z M725,39 L725,44 L720,44 L720,39 L725,39 Z M359.9997,34.0003 L359.9997,38.9993 L345,39 L345,44 L340,44 L340,39 L344.9997,38.9993 L344.9997,34.0003 L359.9997,34.0003 Z M45,39 L45,44 L40,44 L40,39 L45,39 Z M765,39 L765,44 L760,44 L760,39 L765,39 Z M539.9997,34.0003 L539.9997,38.9993 L525,39 L525,44 L520,44 L520,39 L524.9997,38.9993 L524.9997,34.0003 L539.9997,34.0003 Z M365,39 L365,44 L360,44 L360,39 L365,39 Z M785,39 L785,44 L780,44 L780,39 L785,39 Z M545,39 L545,44 L540,44 L540,39 L545,39 Z M105,39 L105,44 L100,44 L100,39 L105,39 Z M825,39 L825,44 L820,44 L820,39 L825,39 Z M125,39 L125,44 L120,44 L120,39 L125,39 Z M585,39 L585,44 L580,44 L580,39 L585,39 Z M845,39 L845,44 L840,44 L840,39 L845,39 Z M405,39 L405,44 L400,44 L400,39 L405,39 Z M179.9997,34.0003 L179.9997,38.9993 L165,39 L165,44 L160,44 L160,39 L164.9997,38.9993 L164.9997,34.0003 L179.9997,34.0003 Z M899.9997,34.0003 L899.9997,38.9993 L885,39 L885,44 L880,44 L880,39 L884.9997,38.9993 L884.9997,34.0003 L899.9997,34.0003 Z M605,39 L605,44 L600,44 L600,39 L605,39 Z M65,39 L65,44 L60,44 L60,39 L65,39 Z M905,39 L905,44 L900,44 L900,39 L905,39 Z M425,39 L425,44 L420,44 L420,39 L425,39 Z M645,39 L645,44 L640,44 L640,39 L645,39 Z M945,39 L945,44 L940,44 L940,39 L945,39 Z M225,39 L225,44 L220,44 L220,39 L225,39 Z M245,39 L245,44 L240,44 L240,39 L245,39 Z M839.9993,34.0003 L839.9993,38.9993 L825.0003,38.9993 L825.0003,34.0003 L839.9993,34.0003 Z M299.9993,34.0003 L299.9993,38.9993 L285.0003,38.9993 L285.0003,34.0003 L299.9993,34.0003 Z M420,34.0003 L420,38.9993 L405,38.9993 L405,34.0003 L420,34.0003 Z M479.9993,34.0003 L479.9993,38.9993 L465.0003,38.9993 L465.0003,34.0003 L479.9993,34.0003 Z M600,34.0003 L600,38.9993 L585,38.9993 L585,34.0003 L600,34.0003 Z M780,34.0003 L780,38.9993 L765,38.9993 L765,34.0003 L780,34.0003 Z M659.9993,34.0003 L659.9993,38.9993 L645.0003,38.9993 L645.0003,34.0003 L659.9993,34.0003 Z M60,34.0003 L60,38.9993 L45,38.9993 L45,34.0003 L60,34.0003 Z M119.9993,34.0003 L119.9993,38.9993 L105.0003,38.9993 L105.0003,34.0003 L119.9993,34.0003 Z M960,34.0003 L960,38.9993 L945,38.9993 L945,34.0003 L960,34.0003 Z M240,34.0003 L240,38.9993 L225,38.9993 L225,34.0003 L240,34.0003 Z" id="challenge_bar"></path>
            </g>
        </g>
    </g>
</svg>