<?xml version="1.0" encoding="UTF-8"?>
<svg width="93px" height="24px" viewBox="0 0 93 24" version="1.1" xmlns="http://www.w3.org/2000/svg" xmlns:xlink="http://www.w3.org/1999/xlink">
    <!-- Generator: Sketch 61.2 (89653) - https://sketch.com -->
    <title>explosion_separator</title>
    <desc>Created with Sketch.</desc>
    <g id="Platform" stroke="none" stroke-width="1" fill="none" fill-rule="evenodd">
        <g id="01.Home" transform="translate(-674.000000, -705.000000)" fill="#FDB50F">
            <g id="explosion_separator" transform="translate(674.000000, 705.000000)">
                <polygon id="Fill-1" points="79.2222222 6.85714286 82.6666667 6.85714286 82.6666667 0 79.2222222 0"></polygon>
                <polygon id="Fill-2" points="79.2222222 24 82.6666667 24 82.6666667 17.1428571 79.2222222 17.1428571"></polygon>
                <polygon id="Fill-3" points="86.1111111 13.7142857 93 13.7142857 93 10.2864 86.1111111 10.2864"></polygon>
                <polygon id="Fill-4" points="68.8888889 13.7142857 75.7777778 13.7142857 75.7777778 10.2857143 68.8888889 10.2857143"></polygon>
                <polygon id="Fill-5" points="86.1111111 6.85714286 89.5555556 6.85714286 89.5555556 3.42857143 86.1111111 3.42857143"></polygon>
                <polygon id="Fill-6" points="72.3333333 6.85714286 75.7777778 6.85714286 75.7777778 3.42857143 72.3333333 3.42857143"></polygon>
                <polygon id="Fill-7" points="89.5555556 3.42857143 93 3.42857143 93 0 89.5555556 0"></polygon>
                <polygon id="Fill-8" points="86.1111111 20.5714286 89.5555556 20.5714286 89.5555556 17.1428571 86.1111111 17.1428571"></polygon>
                <polygon id="Fill-9" points="72.3333333 20.5714286 75.7777778 20.5714286 75.7777778 17.1428571 72.3333333 17.1428571"></polygon>
                <polygon id="Fill-10" points="89.5555556 24 93 24 93 20.5714286 89.5555556 20.5714286"></polygon>
                <polygon id="Fill-11" points="68.8888889 24 72.3333333 24 72.3333333 20.5714286 68.8888889 20.5714286"></polygon>
                <polygon id="Fill-12" points="68.8888889 3.42857143 72.3333333 3.42857143 72.3333333 0 68.8888889 0"></polygon>
                <polygon id="Fill-13" points="44.7777778 6.85714286 48.2222222 6.85714286 48.2222222 0 44.7777778 0"></polygon>
                <polygon id="Fill-14" points="44.7777778 24 48.2222222 24 48.2222222 17.1428571 44.7777778 17.1428571"></polygon>
                <polygon id="Fill-15" points="51.6666667 13.7142857 58.5555556 13.7142857 58.5555556 10.2857143 51.6666667 10.2857143"></polygon>
                <polygon id="Fill-16" points="34.4444444 13.7142857 41.3333333 13.7142857 41.3333333 10.2857143 34.4444444 10.2857143"></polygon>
                <polygon id="Fill-17" points="51.6666667 6.85714286 55.1111111 6.85714286 55.1111111 3.42857143 51.6666667 3.42857143"></polygon>
                <polygon id="Fill-18" points="37.8888889 6.85714286 41.3333333 6.85714286 41.3333333 3.42857143 37.8888889 3.42857143"></polygon>
                <polygon id="Fill-19" points="55.1111111 3.42857143 58.5555556 3.42857143 58.5555556 0 55.1111111 0"></polygon>
                <polygon id="Fill-20" points="51.6666667 20.5714286 55.1111111 20.5714286 55.1111111 17.1428571 51.6666667 17.1428571"></polygon>
                <polygon id="Fill-21" points="37.8888889 20.5714286 41.3333333 20.5714286 41.3333333 17.1428571 37.8888889 17.1428571"></polygon>
                <polygon id="Fill-22" points="55.1111111 24 58.5555556 24 58.5555556 20.5714286 55.1111111 20.5714286"></polygon>
                <polygon id="Fill-23" points="34.4444444 24 37.8882 24 37.8882 20.5714286 34.4444444 20.5714286"></polygon>
                <polygon id="Fill-24" points="34.4444444 3.42857143 37.8882 3.42857143 37.8882 0 34.4444444 0"></polygon>
                <polygon id="Fill-25" points="10.3333333 6.85714286 13.7770889 6.85714286 13.7770889 0 10.3333333 0"></polygon>
                <polygon id="Fill-26" points="10.3333333 24 13.7770889 24 13.7770889 17.1428571 10.3333333 17.1428571"></polygon>
                <polygon id="Fill-27" points="17.2222222 13.7142857 24.1111111 13.7142857 24.1111111 10.2857143 17.2222222 10.2857143"></polygon>
                <polygon id="Fill-28" points="0 13.7142857 6.88888889 13.7142857 6.88888889 10.2864 0 10.2864"></polygon>
                <polygon id="Fill-29" points="17.2222222 6.85714286 20.6666667 6.85714286 20.6666667 3.42857143 17.2222222 3.42857143"></polygon>
                <polygon id="Fill-30" points="3.44444444 6.85714286 6.88888889 6.85714286 6.88888889 3.42857143 3.44444444 3.42857143"></polygon>
                <polygon id="Fill-31" points="20.6666667 3.42857143 24.1111111 3.42857143 24.1111111 0 20.6666667 0"></polygon>
                <polygon id="Fill-32" points="17.2222222 20.5714286 20.6666667 20.5714286 20.6666667 17.1428571 17.2222222 17.1428571"></polygon>
                <polygon id="Fill-33" points="3.44444444 20.5714286 6.88888889 20.5714286 6.88888889 17.1428571 3.44444444 17.1428571"></polygon>
                <polygon id="Fill-34" points="20.6666667 24 24.1111111 24 24.1111111 20.5714286 20.6666667 20.5714286"></polygon>
                <polygon id="Fill-35" points="0 24 3.44444444 24 3.44444444 20.5714286 0 20.5714286"></polygon>
                <polygon id="Fill-36" points="0 3.42857143 3.44444444 3.42857143 3.44444444 0 0 0"></polygon>
            </g>
        </g>
    </g>
</svg>